<svg width="60" height="60" viewBox="0 0 60 60" fill="none" xmlns="http://www.w3.org/2000/svg">
<g clip-path="url(#clip0_3009_27039)">
<circle cx="28.6972" cy="21.2904" r="17.5878" fill="url(#paint0_linear_3009_27039)"/>
<circle cx="44.4319" cy="31.4729" r="14.8108" fill="url(#paint1_linear_3009_27039)"/>
<mask id="mask0_3009_27039" style="mask-type:alpha" maskUnits="userSpaceOnUse" x="18" y="11" width="25" height="45">
<path d="M42.5792 43.5068C42.5792 50.1528 37.1915 55.5405 30.5455 55.5405C23.8994 55.5405 18.5117 50.1528 18.5117 43.5068C18.5117 36.8607 18.5117 11.1082 18.5117 11.1082H42.5792C42.5792 11.1082 42.5792 39.2464 42.5792 43.5068Z" fill="#C4C4C4"/>
</mask>
<g mask="url(#mask0_3009_27039)">
<circle cx="30.5455" cy="43.5067" r="12.0338" fill="url(#paint2_linear_3009_27039)"/>
<path d="M12.957 22.2163C12.957 19.1489 15.4437 16.6622 18.5111 16.6622H31.4705C34.5379 16.6622 37.0246 19.1489 37.0246 22.2163V44.4324C37.0246 47.4999 34.5379 49.9865 31.4705 49.9865H12.957V22.2163Z" fill="black" fill-opacity="0.3"/>
</g>
<rect y="12.9594" width="33.3243" height="33.3243" rx="3.7027" fill="url(#paint3_linear_3009_27039)"/>
<path d="M24.0686 33.5517C24.0686 30.6816 22.1435 29.4146 18.1381 27.9408C15.002 26.7772 14.2568 26.4411 14.2568 25.3293C14.2568 24.3726 15.1883 23.7261 16.7719 23.7261C18.3865 23.7261 19.9079 24.2691 21.6157 25.2L23.3544 22.123C21.5225 20.9853 19.349 20.3647 16.7098 20.3647C12.6733 20.3647 9.78566 22.4333 9.78566 25.5878C9.78566 28.8199 12.0833 29.8542 15.9335 31.2246C19.0075 32.3106 19.5974 32.8536 19.5974 33.8103C19.5974 34.948 18.5107 35.5168 16.8029 35.5168C14.7847 35.5168 13.0148 34.8187 11.245 33.681L9.25781 36.6287C11.4313 38.1284 14.1326 38.8782 16.8961 38.8782C21.0568 38.8782 24.0686 36.9131 24.0686 33.5517Z" fill="white"/>
</g>
<defs>
<linearGradient id="paint0_linear_3009_27039" x1="11.1094" y1="21.2904" x2="49.2163" y2="21.2904" gradientUnits="userSpaceOnUse">
<stop stop-color="#103A3B"/>
<stop offset="1" stop-color="#116B6E"/>
</linearGradient>
<linearGradient id="paint1_linear_3009_27039" x1="33.3238" y1="24.0675" x2="59.2427" y2="38.8783" gradientUnits="userSpaceOnUse">
<stop stop-color="#1D9097"/>
<stop offset="1" stop-color="#29BBC2"/>
</linearGradient>
<linearGradient id="paint2_linear_3009_27039" x1="22.2144" y1="39.804" x2="42.5792" y2="49.0607" gradientUnits="userSpaceOnUse">
<stop stop-color="#28A6B5"/>
<stop offset="1" stop-color="#31D6EC"/>
</linearGradient>
<linearGradient id="paint3_linear_3009_27039" x1="0" y1="29.6215" x2="36.1013" y2="29.6215" gradientUnits="userSpaceOnUse">
<stop stop-color="#105557"/>
<stop offset="1" stop-color="#116B6E"/>
</linearGradient>
<clipPath id="clip0_3009_27039">
<rect width="59.2431" height="59.2431" fill="white"/>
</clipPath>
</defs>
</svg>
