<svg width="57" height="57" viewBox="0 0 57 57" fill="none" xmlns="http://www.w3.org/2000/svg">
<g clip-path="url(#clip0_3009_27041)">
<path d="M33.2695 24.3479C33.2695 23.4743 33.9777 22.7661 34.8513 22.7661H54.4541C55.3277 22.7661 56.0359 23.4743 56.0359 24.3479V35.9005C56.0359 42.1873 50.9395 47.2837 44.6527 47.2837C38.3659 47.2837 33.2695 42.1873 33.2695 35.9005V24.3479Z" fill="url(#paint0_linear_3009_27041)"/>
<path d="M15.7578 21.4105C15.7578 20.2249 16.7189 19.2638 17.9045 19.2638H41.6312C42.8168 19.2638 43.7779 20.2249 43.7779 21.4105V38.5276C43.7779 46.2652 37.5054 52.5377 29.7679 52.5377C22.0303 52.5377 15.7578 46.2652 15.7578 38.5276V21.4105Z" fill="url(#paint1_linear_3009_27041)"/>
<circle cx="47.2811" cy="14.0099" r="5.25377" fill="#34439E"/>
<circle cx="47.2811" cy="14.0099" r="5.25377" fill="url(#paint2_linear_3009_27041)"/>
<circle cx="31.5207" cy="10.5075" r="7.00503" fill="url(#paint3_linear_3009_27041)"/>
<mask id="mask0_3009_27041" style="mask-type:alpha" maskUnits="userSpaceOnUse" x="15" y="0" width="29" height="53">
<path d="M29.7679 17.5126C34.6039 17.5126 38.5241 13.5923 38.5241 8.75628C38.5241 3.92023 34.6039 0 29.7679 0C24.9318 0 21.0116 3.92023 21.0116 8.75628C21.0116 13.5923 24.9318 17.5126 29.7679 17.5126Z" fill="url(#paint4_linear_3009_27041)"/>
<path d="M17.9046 19.2638C16.719 19.2638 15.7578 20.225 15.7578 21.4106V38.5276C15.7578 46.2653 22.0302 52.5377 29.7679 52.5377C37.5055 52.5377 43.7779 46.2653 43.7779 38.5276V21.4106C43.7779 20.225 42.8168 19.2638 41.6312 19.2638H17.9046Z" fill="url(#paint5_linear_3009_27041)"/>
</mask>
<g mask="url(#mask0_3009_27041)">
<path d="M12.2617 21.0151C12.2617 18.1135 14.6139 15.7614 17.5155 15.7614H29.7743C32.6759 15.7614 35.0281 18.1135 35.0281 21.0151V42.0302C35.0281 44.9318 32.6759 47.284 29.7743 47.284H12.2617V21.0151Z" fill="black" fill-opacity="0.3"/>
</g>
<rect y="12.2587" width="31.5226" height="31.5226" rx="3.50251" fill="url(#paint6_linear_3009_27041)"/>
<path d="M22.7601 19.2638H8.75V22.4769H13.9949V36.7764H17.5151V22.4769H22.7601V19.2638Z" fill="white"/>
</g>
<defs>
<linearGradient id="paint0_linear_3009_27041" x1="33.2695" y1="24.0565" x2="56.3145" y2="39.115" gradientUnits="userSpaceOnUse">
<stop stop-color="#364088"/>
<stop offset="1" stop-color="#6E7EE1"/>
</linearGradient>
<linearGradient id="paint1_linear_3009_27041" x1="15.7578" y1="33.9811" x2="43.7779" y2="33.9811" gradientUnits="userSpaceOnUse">
<stop stop-color="#515FC4"/>
<stop offset="1" stop-color="#7084EA"/>
</linearGradient>
<linearGradient id="paint2_linear_3009_27041" x1="42.0273" y1="9.30913" x2="52.1782" y2="16.4523" gradientUnits="userSpaceOnUse">
<stop stop-color="#364088"/>
<stop offset="1" stop-color="#6E7EE1"/>
</linearGradient>
<linearGradient id="paint3_linear_3009_27041" x1="26.5171" y1="5.50388" x2="35.5235" y2="16.0114" gradientUnits="userSpaceOnUse">
<stop stop-color="#4858AE"/>
<stop offset="1" stop-color="#4E60CE"/>
</linearGradient>
<linearGradient id="paint4_linear_3009_27041" x1="23.5134" y1="2.5018" x2="34.7715" y2="15.6362" gradientUnits="userSpaceOnUse">
<stop stop-color="#4858AE"/>
<stop offset="1" stop-color="#4E60CE"/>
</linearGradient>
<linearGradient id="paint5_linear_3009_27041" x1="23.5134" y1="2.5018" x2="34.7715" y2="15.6362" gradientUnits="userSpaceOnUse">
<stop stop-color="#4858AE"/>
<stop offset="1" stop-color="#4E60CE"/>
</linearGradient>
<linearGradient id="paint6_linear_3009_27041" x1="-9.1335e-08" y1="28.02" x2="31.5226" y2="28.02" gradientUnits="userSpaceOnUse">
<stop stop-color="#2A3887"/>
<stop offset="1" stop-color="#4C56B9"/>
</linearGradient>
<clipPath id="clip0_3009_27041">
<rect width="56.0402" height="56.0402" fill="white"/>
</clipPath>
</defs>
</svg>
