<svg width="58" height="52" viewBox="0 0 58 52" fill="none" xmlns="http://www.w3.org/2000/svg">
<g clip-path="url(#clip0_3009_26902)">
<path d="M4.34832 44.0129L6.88484 48.3912C7.41191 49.3129 8.16957 50.0371 9.059 50.5638L18.118 34.8943H0C0 35.9148 0.263535 36.9353 0.790604 37.857L4.34832 44.0129Z" fill="#0066DA"/>
<path d="M28.7582 16.4596L19.6992 0.790039C18.8098 1.31675 18.0521 2.04097 17.525 2.96271L0.790604 31.9316C0.273228 32.8335 0.000688855 33.8548 0 34.8943H18.118L28.7582 16.4596Z" fill="#00AC47"/>
<path d="M48.4549 50.5638C49.3443 50.0371 50.1019 49.3129 50.629 48.3912L51.6831 46.5806L56.7232 37.857C57.2503 36.9353 57.5138 35.9148 57.5138 34.8943H39.3945L43.25 42.4657L48.4549 50.5638Z" fill="#EA4335"/>
<path d="M28.7465 16.4596L37.8055 0.790061C36.9161 0.263354 35.8949 0 34.8407 0H22.6523C21.5981 0 20.5769 0.296273 19.6875 0.790061L28.7465 16.4596Z" fill="#00832D"/>
<path d="M39.3902 34.8943H18.1098L9.05078 50.5638C9.94021 51.0905 10.9614 51.3539 12.0155 51.3539H45.4844C46.5386 51.3539 47.5598 51.0576 48.4492 50.5638L39.3902 34.8943Z" fill="#2684FC"/>
<path d="M48.3543 17.4472L39.9871 2.96271C39.46 2.04097 38.7023 1.31675 37.8129 0.790039L28.7539 16.4596L39.3941 34.8943H57.4792C57.4792 33.8738 57.2156 32.8533 56.6886 31.9316L48.3543 17.4472Z" fill="#FFBA00"/>
</g>
<defs>
<clipPath id="clip0_3009_26902">
<rect width="57.5164" height="51.3539" fill="white"/>
</clipPath>
</defs>
</svg>
