<svg width="44" height="60" viewBox="0 0 44 60" fill="none" xmlns="http://www.w3.org/2000/svg">
<g clip-path="url(#clip0_3009_26981)">
<path d="M28.4565 0L43.3603 14.9163L35.9084 16.2723L28.4565 14.9163L27.1016 7.45814L28.4565 0Z" fill="#188038"/>
<path d="M28.4528 14.9163V0H4.06469C1.81895 0 0 1.82047 0 4.06808V55.5971C0 57.8447 1.81895 59.6652 4.06469 59.6652H39.292C41.5377 59.6652 43.3567 57.8447 43.3567 55.5971V14.9163H28.4528Z" fill="#34A853"/>
<path d="M8.12891 23.0524V42.7148H35.2268V23.0524H8.12891ZM19.9842 39.3247H11.5161V34.5786H19.9842V39.3247ZM19.9842 31.1885H11.5161V26.4424H19.9842V31.1885ZM31.8396 39.3247H23.3715V34.5786H31.8396V39.3247ZM31.8396 31.1885H23.3715V26.4424H31.8396V31.1885Z" fill="white"/>
</g>
<defs>
<clipPath id="clip0_3009_26981">
<rect width="43.3567" height="59.6652" fill="white"/>
</clipPath>
</defs>
</svg>
