<svg width="40" height="55" viewBox="0 0 40 55" fill="none" xmlns="http://www.w3.org/2000/svg">
<g clip-path="url(#clip0_3009_26986)">
<mask id="mask0_3009_26986" style="mask-type:luminance" maskUnits="userSpaceOnUse" x="0" y="0" width="40" height="55">
<path d="M24.7246 0H3.70869C1.66891 0 0 1.67859 0 3.73021V50.9795C0 53.0311 1.66891 54.7097 3.70869 54.7097H35.8506C37.8904 54.7097 39.5593 53.0311 39.5593 50.9795V14.9208L24.7246 0Z" fill="white"/>
</mask>
<g mask="url(#mask0_3009_26986)">
<path d="M24.7246 0H3.70869C1.66891 0 0 1.67859 0 3.73021V50.9795C0 53.0311 1.66891 54.7097 3.70869 54.7097H35.8506C37.8904 54.7097 39.5593 53.0311 39.5593 50.9795V14.9208L30.9057 8.70382L24.7246 0Z" fill="#4285F4"/>
</g>
<mask id="mask1_3009_26986" style="mask-type:luminance" maskUnits="userSpaceOnUse" x="0" y="0" width="40" height="55">
<path d="M24.7246 0H3.70869C1.66891 0 0 1.67859 0 3.73021V50.9795C0 53.0311 1.66891 54.7097 3.70869 54.7097H35.8506C37.8904 54.7097 39.5593 53.0311 39.5593 50.9795V14.9208L24.7246 0Z" fill="white"/>
</mask>
<g mask="url(#mask1_3009_26986)">
<path d="M25.8008 13.83L39.5507 27.6566V14.921L25.8008 13.83Z" fill="url(#paint0_linear_3009_26986)"/>
</g>
<mask id="mask2_3009_26986" style="mask-type:luminance" maskUnits="userSpaceOnUse" x="0" y="0" width="40" height="55">
<path d="M24.7246 0H3.70869C1.66891 0 0 1.67859 0 3.73021V50.9795C0 53.0311 1.66891 54.7097 3.70869 54.7097H35.8506C37.8904 54.7097 39.5593 53.0311 39.5593 50.9795V14.9208L24.7246 0Z" fill="white"/>
</mask>
<g mask="url(#mask2_3009_26986)">
<path d="M9.88672 39.789H29.6664V37.3022H9.88672V39.789ZM9.88672 44.7626H24.7215V42.2758H9.88672V44.7626ZM9.88672 27.355V29.8418H29.6664V27.355H9.88672ZM9.88672 34.8154H29.6664V32.3286H9.88672V34.8154Z" fill="#F1F1F1"/>
</g>
<mask id="mask3_3009_26986" style="mask-type:luminance" maskUnits="userSpaceOnUse" x="0" y="0" width="40" height="55">
<path d="M24.7246 0H3.70869C1.66891 0 0 1.67859 0 3.73021V50.9795C0 53.0311 1.66891 54.7097 3.70869 54.7097H35.8506C37.8904 54.7097 39.5593 53.0311 39.5593 50.9795V14.9208L24.7246 0Z" fill="white"/>
</mask>
<g mask="url(#mask3_3009_26986)">
<path d="M24.7188 0V11.1906C24.7188 13.2516 26.3784 14.9208 28.4274 14.9208H39.5535L24.7188 0Z" fill="#A1C2FA"/>
</g>
<mask id="mask4_3009_26986" style="mask-type:luminance" maskUnits="userSpaceOnUse" x="0" y="0" width="40" height="55">
<path d="M24.7246 0H3.70869C1.66891 0 0 1.67859 0 3.73021V50.9795C0 53.0311 1.66891 54.7097 3.70869 54.7097H35.8506C37.8904 54.7097 39.5593 53.0311 39.5593 50.9795V14.9208L24.7246 0Z" fill="white"/>
</mask>
<g mask="url(#mask4_3009_26986)">
<path d="M3.70869 0C1.66891 0 0 1.67859 0 3.73021V4.04106C0 1.98944 1.66891 0.310851 3.70869 0.310851H24.7246V0H3.70869Z" fill="white" fill-opacity="0.2"/>
</g>
<mask id="mask5_3009_26986" style="mask-type:luminance" maskUnits="userSpaceOnUse" x="0" y="0" width="40" height="55">
<path d="M24.7246 0H3.70869C1.66891 0 0 1.67859 0 3.73021V50.9795C0 53.0311 1.66891 54.7097 3.70869 54.7097H35.8506C37.8904 54.7097 39.5593 53.0311 39.5593 50.9795V14.9208L24.7246 0Z" fill="white"/>
</mask>
<g mask="url(#mask5_3009_26986)">
<path d="M35.8506 54.3988H3.70869C1.66891 54.3988 0 52.7202 0 50.6686V50.9794C0 53.031 1.66891 54.7096 3.70869 54.7096H35.8506C37.8904 54.7096 39.5593 53.031 39.5593 50.9794V50.6686C39.5593 52.7202 37.8904 54.3988 35.8506 54.3988Z" fill="#1A237E" fill-opacity="0.2"/>
</g>
<mask id="mask6_3009_26986" style="mask-type:luminance" maskUnits="userSpaceOnUse" x="0" y="0" width="40" height="55">
<path d="M24.7246 0H3.70869C1.66891 0 0 1.67859 0 3.73021V50.9795C0 53.0311 1.66891 54.7097 3.70869 54.7097H35.8506C37.8904 54.7097 39.5593 53.0311 39.5593 50.9795V14.9208L24.7246 0Z" fill="white"/>
</mask>
<g mask="url(#mask6_3009_26986)">
<path d="M28.4274 14.921C26.3784 14.921 24.7188 13.2517 24.7188 11.1908V11.5016C24.7188 13.5626 26.3784 15.2319 28.4274 15.2319H39.5535V14.921H28.4274Z" fill="#1A237E" fill-opacity="0.1"/>
</g>
<path d="M24.7246 0H3.70869C1.66891 0 0 1.67859 0 3.73021V50.9795C0 53.0311 1.66891 54.7097 3.70869 54.7097H35.8506C37.8904 54.7097 39.5593 53.0311 39.5593 50.9795V14.9208L24.7246 0Z" fill="url(#paint1_radial_3009_26986)"/>
</g>
<defs>
<linearGradient id="paint0_linear_3009_26986" x1="713.373" y1="132.547" x2="713.373" y2="1396.69" gradientUnits="userSpaceOnUse">
<stop stop-color="#1A237E" stop-opacity="0.2"/>
<stop offset="1" stop-color="#1A237E" stop-opacity="0.02"/>
</linearGradient>
<radialGradient id="paint1_radial_3009_26986" cx="0" cy="0" r="1" gradientUnits="userSpaceOnUse" gradientTransform="translate(125.326 107.507) scale(6378.88 6378.88)">
<stop stop-color="white" stop-opacity="0.1"/>
<stop offset="1" stop-color="white" stop-opacity="0"/>
</radialGradient>
<clipPath id="clip0_3009_26986">
<rect width="39.5593" height="54.7097" fill="white"/>
</clipPath>
</defs>
</svg>
