<svg width="52" height="54" viewBox="0 0 52 54" fill="none" xmlns="http://www.w3.org/2000/svg">
<g clip-path="url(#clip0_3009_26924)">
<path d="M3.28267 2.32493L33.1722 0.0862227C36.8004 -0.258194 37.7507 0.000118464 40.0831 1.6361L49.6719 8.35223C51.2269 9.47158 51.7452 9.816 51.7452 11.1076V47.8741C51.7452 50.1989 50.8813 51.5765 47.9442 51.7487L13.217 53.8152C10.971 53.9013 9.93438 53.643 8.81137 52.1793L1.8141 43.1383C0.518316 41.4162 0 40.2108 0 38.747V6.02741C0 4.13312 0.863859 2.49714 3.28267 2.32493Z" fill="white"/>
<path fill-rule="evenodd" clip-rule="evenodd" d="M33.1722 0.0860401L3.28267 2.32475C0.863859 2.49696 0 4.13294 0 6.02723V38.7468C0 40.2106 0.518316 41.5022 1.8141 43.1381L8.81137 52.2652C9.93438 53.7289 11.0574 54.0734 13.217 53.9012L47.9442 51.8347C50.8813 51.6624 51.7452 50.2848 51.7452 47.96V11.1074C51.7452 9.90192 51.3133 9.5575 49.8447 8.52425C49.7583 8.43815 49.6719 8.43815 49.5855 8.35204L40.0831 1.72202C37.837 -6.4007e-05 36.8868 -0.172272 33.1722 0.0860401ZM13.9945 10.5046C11.1438 10.6769 10.5391 10.763 8.89775 9.38529L4.83761 6.19944C4.40568 5.76892 4.57845 5.25229 5.70147 5.16619L34.468 3.09969C36.8868 2.92748 38.0962 3.70242 39.0464 4.47735L43.9704 8.00762C44.2296 8.09373 44.7479 8.69646 44.0568 8.69646L14.3401 10.5046H13.9945ZM10.7119 47.6155V16.3597C10.7119 14.9821 11.1438 14.3793 12.3532 14.2932L46.4756 12.3128C47.5987 12.2267 48.117 12.9156 48.117 14.2932V45.2907C48.117 46.6684 47.8578 47.7878 46.0437 47.8739L13.3898 49.7682C11.5757 49.9404 10.7119 49.2515 10.7119 47.6155ZM42.9338 18.0818C43.1066 19.029 42.9338 19.9761 41.9836 20.0622L40.4286 20.4066V43.4825C39.0464 44.2575 37.837 44.6019 36.8004 44.6019C35.1591 44.6019 34.7271 44.0853 33.4314 42.5354L23.065 26.3478V41.9327L26.3477 42.7076C26.3477 42.7076 26.3477 44.6019 23.7561 44.6019L16.4997 45.0324C16.3269 44.6019 16.4997 43.5687 17.1908 43.3964L19.0913 42.8798V22.2148L16.4997 21.9565C16.3269 21.0094 16.8453 19.6317 18.3138 19.5456L26.0886 19.029L36.8004 35.3888V20.9233L34.0361 20.5788C33.8633 19.4595 34.6408 18.5984 35.6774 18.5123L42.9338 18.0818Z" fill="black"/>
</g>
<defs>
<clipPath id="clip0_3009_26924">
<rect width="51.7452" height="53.9012" fill="white"/>
</clipPath>
</defs>
</svg>
