<svg width="59" height="59" viewBox="0 0 59 59" fill="none" xmlns="http://www.w3.org/2000/svg">
<path fill-rule="evenodd" clip-rule="evenodd" d="M49.8586 29.284C50.5737 29.999 50.5737 31.1584 49.8586 31.8734L48.3079 33.4241C47.5929 34.1392 46.4336 34.1392 45.7185 33.4241C45.0035 32.7091 45.0035 31.5497 45.7185 30.8347L47.2692 29.284C47.9842 28.5689 49.1436 28.5689 49.8586 29.284Z" fill="white" fill-opacity="0.9"/>
<path fill-rule="evenodd" clip-rule="evenodd" d="M33.4244 45.7183C34.1394 46.4333 34.1394 47.5926 33.4244 48.3077L31.8737 49.8584C31.1586 50.5734 29.9993 50.5734 29.2842 49.8584C28.5692 49.1433 28.5692 47.984 29.2842 47.269L30.8349 45.7183C31.55 45.0032 32.7093 45.0032 33.4244 45.7183Z" fill="white" fill-opacity="0.9"/>
<path fill-rule="evenodd" clip-rule="evenodd" d="M39.5714 25.0229C40.5827 25.0229 41.4024 25.8427 41.4024 26.8539V29.0469C41.4024 30.0581 40.5827 30.8779 39.5714 30.8779C38.5602 30.8779 37.7404 30.0581 37.7404 29.0469V26.8539C37.7404 25.8427 38.5602 25.0229 39.5714 25.0229Z" fill="white" fill-opacity="0.9"/>
<path fill-rule="evenodd" clip-rule="evenodd" d="M29.2842 29.284C29.9993 28.5689 31.1586 28.5689 31.8737 29.284L33.4244 30.8347C34.1394 31.5497 34.1394 32.7091 33.4244 33.4241C32.7093 34.1392 31.55 34.1392 30.8349 33.4241L29.2842 31.8734C28.5692 31.1584 28.5692 29.999 29.2842 29.284Z" fill="white" fill-opacity="0.9"/>
<path fill-rule="evenodd" clip-rule="evenodd" d="M25.0232 39.5712C25.0232 38.5599 25.8429 37.7402 26.8541 37.7402H29.0472C30.0584 37.7402 30.8782 38.5599 30.8782 39.5712C30.8782 40.5824 30.0584 41.4022 29.0472 41.4022H26.8541C25.8429 41.4022 25.0232 40.5824 25.0232 39.5712Z" fill="white" fill-opacity="0.9"/>
<path fill-rule="evenodd" clip-rule="evenodd" d="M36.8125 36.8122C37.6648 35.9599 38.9254 35.6623 40.0689 36.0434L50.9325 39.6646C52.1114 40.0576 52.9537 41.1009 53.0894 42.3362C53.225 43.5715 52.6291 44.7727 51.5635 45.4121L47.9059 47.6067C47.7833 47.6803 47.6806 47.7829 47.6071 47.9056L45.4125 51.5631C44.7732 52.6287 43.5719 53.2247 42.3366 53.0891C41.1013 52.9535 40.0579 52.1112 39.6649 50.9322L36.0437 40.0686C35.6625 38.9251 35.9602 37.6645 36.8125 36.8122ZM39.8212 39.8209L48.7848 42.8088L46.0219 44.4665C45.3838 44.8494 44.8498 45.3834 44.4669 46.0215L42.8091 48.7845L39.8212 39.8209Z" fill="white" fill-opacity="0.9"/>
<path fill-rule="evenodd" clip-rule="evenodd" d="M45.1486 45.1484C45.8637 44.4333 47.023 44.4333 47.738 45.1484L51.8788 49.2891C52.5938 50.0041 52.5938 51.1635 51.8788 51.8785C51.1637 52.5936 50.0044 52.5936 49.2893 51.8785L45.1486 47.7378C44.4336 47.0228 44.4336 45.8634 45.1486 45.1484Z" fill="white" fill-opacity="0.9"/>
<path fill-rule="evenodd" clip-rule="evenodd" d="M5.48438 17.0845C5.48438 16.0733 6.30414 15.2535 7.31537 15.2535H51.2776C52.2889 15.2535 53.1086 16.0733 53.1086 17.0845C53.1086 18.0957 52.2889 18.9155 51.2776 18.9155H7.31537C6.30414 18.9155 5.48438 18.0957 5.48438 17.0845Z" fill="white" fill-opacity="0.9"/>
<path fill-rule="evenodd" clip-rule="evenodd" d="M14.6424 9.14613C11.607 9.14613 9.14637 11.6068 9.14637 14.6422V34.1809C9.14637 37.2163 11.607 39.677 14.6424 39.677H17.0848C18.096 39.677 18.9158 40.4968 18.9158 41.508C18.9158 42.5192 18.096 43.339 17.0848 43.339H14.6424C9.58457 43.339 5.48438 39.2388 5.48438 34.1809V14.6422C5.48438 9.58432 9.58457 5.48413 14.6424 5.48413H43.9506C49.0084 5.48413 53.1086 9.58432 53.1086 14.6422V21.9692C53.1086 22.9804 52.2889 23.8002 51.2776 23.8002C50.2664 23.8002 49.4466 22.9804 49.4466 21.9692V14.6422C49.4466 11.6068 46.986 9.14613 43.9506 9.14613H14.6424Z" fill="white" fill-opacity="0.9"/>
</svg>
