<svg width="42" height="57" viewBox="0 0 42 57" fill="none" xmlns="http://www.w3.org/2000/svg">
<g clip-path="url(#clip0_3009_26930)">
<mask id="mask0_3009_26930" style="mask-type:luminance" maskUnits="userSpaceOnUse" x="0" y="0" width="41" height="56">
<path d="M25.4496 0H3.81744C1.71785 0 0 1.71785 0 3.81744V52.1717C0 54.2713 1.71785 55.9892 3.81744 55.9892H36.9019C39.0015 55.9892 40.7194 54.2713 40.7194 52.1717V15.2698L25.4496 0Z" fill="white"/>
</mask>
<g mask="url(#mask0_3009_26930)">
<path d="M25.4496 0H3.81744C1.71785 0 0 1.71785 0 3.81744V52.1717C0 54.2713 1.71785 55.9892 3.81744 55.9892H36.9019C39.0015 55.9892 40.7194 54.2713 40.7194 52.1717V15.2698L31.812 8.90736L25.4496 0Z" fill="#F4B400"/>
</g>
<mask id="mask1_3009_26930" style="mask-type:luminance" maskUnits="userSpaceOnUse" x="0" y="0" width="41" height="56">
<path d="M25.4496 0H3.81744C1.71785 0 0 1.71785 0 3.81744V52.1717C0 54.2713 1.71785 55.9892 3.81744 55.9892H36.9019C39.0015 55.9892 40.7194 54.2713 40.7194 52.1717V15.2698L25.4496 0Z" fill="white"/>
</mask>
<g mask="url(#mask1_3009_26930)">
<path d="M28.6228 25.4495H12.0806C11.0308 25.4495 10.1719 26.3084 10.1719 27.3582V43.9004C10.1719 44.9502 11.0308 45.8092 12.0806 45.8092H28.6228C29.6726 45.8092 30.5316 44.9502 30.5316 43.9004V27.3582C30.5316 26.3084 29.6726 25.4495 28.6228 25.4495ZM27.9866 40.083H12.7168V31.1756H27.9866V40.083Z" fill="#F1F1F1"/>
</g>
<mask id="mask2_3009_26930" style="mask-type:luminance" maskUnits="userSpaceOnUse" x="0" y="0" width="41" height="56">
<path d="M25.4496 0H3.81744C1.71785 0 0 1.71785 0 3.81744V52.1717C0 54.2713 1.71785 55.9892 3.81744 55.9892H36.9019C39.0015 55.9892 40.7194 54.2713 40.7194 52.1717V15.2698L25.4496 0Z" fill="white"/>
</mask>
<g mask="url(#mask2_3009_26930)">
<path d="M26.5664 14.1531L40.7196 28.3031V15.2697L26.5664 14.1531Z" fill="url(#paint0_linear_3009_26930)"/>
</g>
<mask id="mask3_3009_26930" style="mask-type:luminance" maskUnits="userSpaceOnUse" x="0" y="0" width="41" height="56">
<path d="M25.4496 0H3.81744C1.71785 0 0 1.71785 0 3.81744V52.1717C0 54.2713 1.71785 55.9892 3.81744 55.9892H36.9019C39.0015 55.9892 40.7194 54.2713 40.7194 52.1717V15.2698L25.4496 0Z" fill="white"/>
</mask>
<g mask="url(#mask3_3009_26930)">
<path d="M25.4453 0V11.4523C25.4453 13.5615 27.1536 15.2698 29.2628 15.2698H40.7151L25.4453 0Z" fill="#FADA80"/>
</g>
<mask id="mask4_3009_26930" style="mask-type:luminance" maskUnits="userSpaceOnUse" x="0" y="0" width="41" height="56">
<path d="M25.4496 0H3.81744C1.71785 0 0 1.71785 0 3.81744V52.1717C0 54.2713 1.71785 55.9892 3.81744 55.9892H36.9019C39.0015 55.9892 40.7194 54.2713 40.7194 52.1717V15.2698L25.4496 0Z" fill="white"/>
</mask>
<g mask="url(#mask4_3009_26930)">
<path d="M25.4453 0V0.31812L40.397 15.2698H40.7151L25.4453 0Z" fill="white" fill-opacity="0.1"/>
</g>
<mask id="mask5_3009_26930" style="mask-type:luminance" maskUnits="userSpaceOnUse" x="0" y="0" width="41" height="56">
<path d="M25.4496 0H3.81744C1.71785 0 0 1.71785 0 3.81744V52.1717C0 54.2713 1.71785 55.9892 3.81744 55.9892H36.9019C39.0015 55.9892 40.7194 54.2713 40.7194 52.1717V15.2698L25.4496 0Z" fill="white"/>
</mask>
<g mask="url(#mask5_3009_26930)">
<path d="M3.81744 0C1.71785 0 0 1.71785 0 3.81744V4.13556C0 2.03597 1.71785 0.31812 3.81744 0.31812H25.4496V0H3.81744Z" fill="white" fill-opacity="0.2"/>
</g>
<mask id="mask6_3009_26930" style="mask-type:luminance" maskUnits="userSpaceOnUse" x="0" y="0" width="41" height="56">
<path d="M25.4496 0H3.81744C1.71785 0 0 1.71785 0 3.81744V52.1717C0 54.2713 1.71785 55.9892 3.81744 55.9892H36.9019C39.0015 55.9892 40.7194 54.2713 40.7194 52.1717V15.2698L25.4496 0Z" fill="white"/>
</mask>
<g mask="url(#mask6_3009_26930)">
<path d="M36.9019 55.6708H3.81744C1.71785 55.6708 0 53.953 0 51.8534V52.1715C0 54.2711 1.71785 55.989 3.81744 55.989H36.9019C39.0015 55.989 40.7194 54.2711 40.7194 52.1715V51.8534C40.7194 53.953 39.0015 55.6708 36.9019 55.6708Z" fill="#BF360C" fill-opacity="0.2"/>
</g>
<mask id="mask7_3009_26930" style="mask-type:luminance" maskUnits="userSpaceOnUse" x="0" y="0" width="41" height="56">
<path d="M25.4496 0H3.81744C1.71785 0 0 1.71785 0 3.81744V52.1717C0 54.2713 1.71785 55.9892 3.81744 55.9892H36.9019C39.0015 55.9892 40.7194 54.2713 40.7194 52.1717V15.2698L25.4496 0Z" fill="white"/>
</mask>
<g mask="url(#mask7_3009_26930)">
<path d="M29.2628 15.2698C27.1536 15.2698 25.4453 13.5615 25.4453 11.4524V11.7705C25.4453 13.8797 27.1536 15.588 29.2628 15.588H40.7151V15.2698H29.2628Z" fill="#BF360C" fill-opacity="0.1"/>
</g>
<path d="M25.4496 0H3.81744C1.71785 0 0 1.71785 0 3.81744V52.1717C0 54.2713 1.71785 55.9892 3.81744 55.9892H36.9019C39.0015 55.9892 40.7194 54.2713 40.7194 52.1717V15.2698L25.4496 0Z" fill="url(#paint1_radial_3009_26930)"/>
</g>
<defs>
<linearGradient id="paint0_linear_3009_26930" x1="734.301" y1="135.646" x2="734.301" y2="1429.35" gradientUnits="userSpaceOnUse">
<stop stop-color="#BF360C" stop-opacity="0.2"/>
<stop offset="1" stop-color="#BF360C" stop-opacity="0.02"/>
</linearGradient>
<radialGradient id="paint1_radial_3009_26930" cx="0" cy="0" r="1" gradientUnits="userSpaceOnUse" gradientTransform="translate(129.001 110.659) scale(6565.94 6565.94)">
<stop stop-color="white" stop-opacity="0.1"/>
<stop offset="1" stop-color="white" stop-opacity="0"/>
</radialGradient>
<clipPath id="clip0_3009_26930">
<rect width="41.2929" height="56.7777" fill="white"/>
</clipPath>
</defs>
</svg>
