<svg width="41" height="57" viewBox="0 0 41 57" fill="none" xmlns="http://www.w3.org/2000/svg">
<g clip-path="url(#clip0_3009_27032)">
<path d="M26.7163 14.01L34.3931 15.462L40.7146 14.01L26.7163 0L24.7852 6.64202L26.7163 14.01Z" fill="#56368A"/>
<path d="M26.7241 14.01V0H3.81773C1.70843 0 0 1.70986 0 3.82091V52.2191C0 54.3302 1.70843 56.04 3.81773 56.04H36.9047C39.014 56.04 40.7224 54.3302 40.7224 52.2191V14.01H26.7241Z" fill="#7248B9"/>
<path d="M10.8151 40.4379C9.76206 40.4379 8.90625 39.5814 8.90625 38.5275C8.90625 37.4735 9.76206 36.617 10.8151 36.617C11.8682 36.617 12.724 37.4735 12.724 38.5275C12.724 39.5814 11.8682 40.4379 10.8151 40.4379ZM10.8151 32.7961C9.76206 32.7961 8.90625 31.9396 8.90625 30.8857C8.90625 29.8317 9.76206 28.9752 10.8151 28.9752C11.8682 28.9752 12.724 29.8317 12.724 30.8857C12.724 31.9396 11.8682 32.7961 10.8151 32.7961ZM10.8151 25.1543C9.76206 25.1543 8.90625 24.2978 8.90625 23.2438C8.90625 22.1899 9.76206 21.3334 10.8151 21.3334C11.8682 21.3334 12.724 22.1899 12.724 23.2438C12.724 24.2978 11.8682 25.1543 10.8151 25.1543ZM31.8126 40.1195H15.9054V36.9354H31.8126V40.1195ZM31.8126 32.4777H15.9054V29.2936H31.8126V32.4777ZM31.8126 24.8359H15.9054V21.6518H31.8126V24.8359Z" fill="white"/>
</g>
<defs>
<clipPath id="clip0_3009_27032">
<rect width="40.7225" height="56.0401" fill="white"/>
</clipPath>
</defs>
</svg>
